<svg xmlns="http://www.w3.org/2000/svg" width="222" height="45" viewBox="0 0 222 45" fill="none"><path d="M45 22.5L38.7582 16.2582C38.1371 15.6371 37.4374 15.1424 36.6917 14.7696C37.2557 13.6614 37.5506 12.438 37.5506 11.1678V7.44936H33.8322C32.562 7.44936 31.3386 7.74427 30.2304 8.30828C29.8576 7.56262 29.3629 6.86288 28.7418 6.2418L22.5 0L16.2582 6.2418C15.637 6.86295 15.1422 7.56278 14.7695 8.30854C13.6611 7.74435 12.4375 7.44936 11.1671 7.44936H7.44871V11.1678C7.44871 12.4381 7.74367 13.6616 8.30775 14.7699C7.56229 15.1426 6.86272 15.6372 6.2418 16.2582L0 22.5L6.2418 28.7418C6.86272 29.3628 7.56229 29.8574 8.30776 30.2301C7.74367 31.3384 7.44872 32.5619 7.44872 33.8322V37.5506H11.1671C12.4375 37.5506 13.6611 37.2556 14.7695 36.6915C15.1422 37.4372 15.637 38.1371 16.2582 38.7582L22.5 45L28.7418 38.7582C29.3629 38.1371 29.8576 37.4374 30.2304 36.6917C31.3386 37.2557 32.562 37.5506 33.8322 37.5506H37.5506V33.8322C37.5506 32.562 37.2557 31.3386 36.6917 30.2304C37.4374 29.8576 38.1371 29.3629 38.7582 28.7418L45 22.5ZM33.8322 9.22003H35.78V11.1678C35.78 12.2271 35.5165 13.2444 35.014 14.1539C33.5913 13.8089 32.092 13.8617 30.692 14.308C31.1383 12.908 31.1911 11.4087 30.8461 9.98605C31.7556 9.48353 32.7728 9.22003 33.8322 9.22003ZM22.5 27.9891C19.4733 27.9891 17.0109 25.5267 17.0109 22.5C17.0109 19.4733 19.4733 17.0109 22.5 17.0109C25.5267 17.0109 27.9891 19.4733 27.9891 22.5C27.9891 25.5267 25.5267 27.9891 22.5 27.9891ZM17.5102 7.49389L22.5 2.50409L27.4898 7.49389C29.9061 9.91018 29.9061 13.8419 27.4898 16.2582L26.9655 16.7824C25.7329 15.8176 24.1831 15.2403 22.5 15.2403C20.8169 15.2403 19.2671 15.8176 18.0345 16.7824L17.5102 16.2582C15.0939 13.8419 15.0939 9.91018 17.5102 7.49389ZM9.21938 11.1678V9.22003H11.1671C12.2267 9.22003 13.2441 9.48365 14.1538 9.98638C13.8089 11.409 13.8617 12.9081 14.308 14.308C12.9078 13.8616 11.4083 13.8089 9.98546 14.154C9.48291 13.2445 9.21938 12.2272 9.21938 11.1678ZM2.50409 22.5L7.49389 17.5102C9.91014 15.0939 13.8419 15.0939 16.2582 17.5102L16.7824 18.0345C15.8176 19.2671 15.2403 20.8169 15.2403 22.5C15.2403 24.1831 15.8176 25.7329 16.7824 26.9655L16.2582 27.4898C13.8419 29.9061 9.91014 29.9061 7.49389 27.4898L2.50409 22.5ZM11.1671 35.78H9.21938V33.8322C9.21938 32.7728 9.48291 31.7555 9.98548 30.8459C10.6059 30.9964 11.2409 31.0718 11.876 31.0718C12.6975 31.0718 13.5183 30.9437 14.308 30.692C13.8617 32.0919 13.8089 33.591 14.1538 35.0136C13.2441 35.5163 12.2267 35.78 11.1671 35.78ZM27.4898 37.5061L22.5 42.4959L17.5102 37.5061C15.0939 35.0898 15.0939 31.1581 17.5102 28.7418L18.0345 28.2176C19.2671 29.1824 20.8169 29.7597 22.5 29.7597C24.1831 29.7597 25.7329 29.1824 26.9655 28.2176L27.4898 28.7418C29.9061 31.1581 29.9061 35.0898 27.4898 37.5061ZM35.78 33.8322V35.78H33.8322C32.7728 35.78 31.7556 35.5165 30.8461 35.014C31.1911 33.5913 31.1383 32.092 30.692 30.692C31.4817 30.9437 32.3025 31.0718 33.124 31.0718C33.7589 31.0718 34.3937 30.9965 35.014 30.8461C35.5165 31.7556 35.78 32.7728 35.78 33.8322ZM28.7418 27.4898L28.2176 26.9655C29.1824 25.7329 29.7597 24.1831 29.7597 22.5C29.7597 20.8169 29.1824 19.2671 28.2176 18.0345L28.7418 17.5102C31.1581 15.0939 35.0899 15.0939 37.5061 17.5102L42.4959 22.5L37.5061 27.4898C35.0899 29.9061 31.1581 29.9061 28.7418 27.4898Z" fill="url(#paint0_linear_18910_1682)"></path><path d="M22.5 18.7816C20.4497 18.7816 18.7816 20.4497 18.7816 22.5C18.7816 24.5503 20.4497 26.2184 22.5 26.2184C24.5503 26.2184 26.2184 24.5503 26.2184 22.5C26.2184 20.4497 24.5503 18.7816 22.5 18.7816ZM22.5 24.4477C21.426 24.4477 20.5523 23.574 20.5523 22.5C20.5523 21.426 21.426 20.5523 22.5 20.5523C23.574 20.5523 24.4477 21.426 24.4477 22.5C24.4477 23.574 23.574 24.4477 22.5 24.4477Z" fill="url(#paint1_linear_18910_1682)"></path><path d="M57.5456 16.2788C57.1104 15.0169 56.6427 14.1575 56.1422 13.7006C55.6636 13.222 54.9347 12.9391 53.9557 12.8521V12.1994C54.0644 12.1994 54.2276 12.1885 54.4452 12.1668C54.641 12.145 54.8477 12.1341 55.0653 12.1341C56.2619 12.1341 57.3389 12.4061 58.2962 12.95C59.2753 13.4939 60.0585 14.6036 60.646 16.2788L65.0191 28.8762L68.5112 18.5307L67.7279 16.2788C67.2928 15.0169 66.825 14.1575 66.3246 13.7006C65.8459 13.222 65.117 12.9391 64.138 12.8521V12.1994C64.2468 12.1994 64.3991 12.1885 64.5949 12.1668C64.8124 12.145 65.03 12.1341 65.2476 12.1341C66.4442 12.1341 67.5212 12.4061 68.4785 12.95C69.4576 13.4939 70.2408 14.6036 70.8283 16.2788L75.2015 28.8762L80.7822 12.4605H82.1855L74.7119 34.3264H74.0592L69.2291 20.5868L64.5296 34.3264H63.8769L57.5456 16.2788ZM88.0155 34.3264C86.5361 34.3264 85.285 33.9782 84.2624 33.282C83.2399 32.564 82.4675 31.6067 81.9453 30.4101C81.4231 29.1917 81.1621 27.8319 81.1621 26.3306C81.1621 24.8511 81.4231 23.5022 81.9453 22.2838C82.4675 21.0654 83.2181 20.1081 84.1972 19.4119C85.198 18.6939 86.362 18.3349 87.6892 18.3349C89.8866 18.3349 91.5184 18.955 92.5845 20.1951C93.6724 21.4135 94.2163 23.1867 94.2163 25.5147L94.151 26.8202H84.2624C84.2624 28.6478 84.6541 30.1381 85.4373 31.2912C86.2206 32.4444 87.2976 33.0209 88.6682 33.0209C89.6908 33.0209 90.5502 32.8034 91.2465 32.3682C91.9644 31.9331 92.628 31.2804 93.2372 30.4101L93.89 30.8996C93.172 32.0963 92.3343 32.9665 91.377 33.5105C90.4197 34.0544 89.2992 34.3264 88.0155 34.3264ZM91.1159 25.5147C91.1159 23.6001 90.8331 22.1424 90.2674 21.1416C89.7017 20.1407 88.8423 19.6403 87.6892 19.6403C87.0365 19.6403 86.449 19.9014 85.9269 20.4236C85.4047 20.924 84.9913 21.6202 84.6867 22.5123C84.4039 23.4043 84.2624 24.4051 84.2624 25.5147H91.1159ZM96.4773 16.3768C96.4773 15.2671 96.325 14.4513 96.0204 13.9291C95.7159 13.3852 95.1067 13.1132 94.1929 13.1132H93.5401V12.4605H96.4773C97.2824 12.4605 97.8807 12.5693 98.2723 12.7868C98.6857 12.9826 98.9794 13.3525 99.1535 13.8964C99.3275 14.4404 99.4146 15.2671 99.4146 16.3768V34H96.4773V16.3768ZM102.75 16.3768C102.75 15.2671 102.597 14.4513 102.293 13.9291C101.988 13.3852 101.379 13.1132 100.465 13.1132H99.8123V12.4605H102.75C103.555 12.4605 104.153 12.5693 104.544 12.7868C104.958 12.9826 105.252 13.3525 105.426 13.8964C105.6 14.4404 105.687 15.2671 105.687 16.3768V34H102.75V16.3768ZM109.381 22.5775C109.381 21.4679 109.228 20.652 108.924 20.1299C108.619 19.5859 108.01 19.314 107.096 19.314H106.443V18.6612H109.381C110.186 18.6612 110.795 18.77 111.208 18.9876C111.643 19.2052 111.959 19.5315 112.155 19.9667H112.318C112.775 19.5098 113.362 19.129 114.08 18.8244C114.82 18.4981 115.647 18.3349 116.561 18.3349C118.192 18.3349 119.519 18.77 120.542 19.6403C121.586 20.5106 122.109 22.0336 122.109 24.2093V34H119.171V24.2093C119.171 22.6863 118.823 21.5767 118.127 20.8805C117.453 20.1625 116.604 19.8035 115.581 19.8035C114.428 19.8035 113.34 20.3801 112.318 21.5332V34H109.381V22.5775ZM130.984 34.3264C129.504 34.3264 128.253 33.9782 127.231 33.282C126.208 32.564 125.436 31.6067 124.913 30.4101C124.391 29.1917 124.13 27.8319 124.13 26.3306C124.13 24.8511 124.391 23.5022 124.913 22.2838C125.436 21.0654 126.186 20.1081 127.165 19.4119C128.166 18.6939 129.33 18.3349 130.657 18.3349C132.855 18.3349 134.487 18.955 135.553 20.1951C136.641 21.4135 137.184 23.1867 137.184 25.5147L137.119 26.8202H127.231C127.231 28.6478 127.622 30.1381 128.405 31.2912C129.189 32.4444 130.266 33.0209 131.636 33.0209C132.659 33.0209 133.518 32.8034 134.215 32.3682C134.933 31.9331 135.596 31.2804 136.205 30.4101L136.858 30.8996C136.14 32.0963 135.302 32.9665 134.345 33.5105C133.388 34.0544 132.267 34.3264 130.984 34.3264ZM134.084 25.5147C134.084 23.6001 133.801 22.1424 133.236 21.1416C132.67 20.1407 131.81 19.6403 130.657 19.6403C130.005 19.6403 129.417 19.9014 128.895 20.4236C128.373 20.924 127.959 21.6202 127.655 22.5123C127.372 23.4043 127.231 24.4051 127.231 25.5147H134.084ZM144.439 34.3264C141.937 34.3264 140.25 33.8912 139.38 33.0209C139.01 32.6511 138.782 32.2377 138.695 31.7808C138.608 31.3021 138.564 30.5733 138.564 29.5942H139.217C139.413 30.682 139.881 31.5306 140.62 32.1398C141.382 32.7272 142.437 33.0209 143.786 33.0209C144.983 33.0209 145.875 32.8142 146.462 32.4009C147.071 31.9875 147.376 31.4327 147.376 30.7364C147.376 30.1055 147.137 29.5616 146.658 29.1047C146.201 28.6478 145.461 28.2126 144.439 27.7992L142.481 26.9833C141.175 26.4612 140.196 25.852 139.543 25.1557C138.891 24.4595 138.564 23.6001 138.564 22.5775C138.564 21.2503 139.065 20.2169 140.066 19.4771C141.066 18.7156 142.361 18.3349 143.949 18.3349C146.342 18.3349 147.974 18.77 148.845 19.6403C149.214 20.0102 149.443 20.4236 149.53 20.8805C149.617 21.3374 149.66 22.0662 149.66 23.0671H149.008C148.834 21.9792 148.377 21.1416 147.637 20.5541C146.897 19.9449 145.886 19.6403 144.602 19.6403C143.579 19.6403 142.774 19.8579 142.187 20.293C141.621 20.7064 141.338 21.2503 141.338 21.9248C141.338 23.0562 142.209 23.9809 143.949 24.6988L145.907 25.5147C147.387 26.1239 148.464 26.7766 149.138 27.4729C149.813 28.1473 150.15 29.0176 150.15 30.0837C150.15 31.4109 149.617 32.4552 148.551 33.2167C147.485 33.9565 146.114 34.3264 144.439 34.3264ZM157.372 34.3264C154.87 34.3264 153.184 33.8912 152.313 33.0209C151.943 32.6511 151.715 32.2377 151.628 31.7808C151.541 31.3021 151.497 30.5733 151.497 29.5942H152.15C152.346 30.682 152.814 31.5306 153.554 32.1398C154.315 32.7272 155.37 33.0209 156.719 33.0209C157.916 33.0209 158.808 32.8142 159.395 32.4009C160.004 31.9875 160.309 31.4327 160.309 30.7364C160.309 30.1055 160.07 29.5616 159.591 29.1047C159.134 28.6478 158.394 28.2126 157.372 27.7992L155.414 26.9833C154.108 26.4612 153.129 25.852 152.477 25.1557C151.824 24.4595 151.497 23.6001 151.497 22.5775C151.497 21.2503 151.998 20.2169 152.999 19.4771C154 18.7156 155.294 18.3349 156.882 18.3349C159.276 18.3349 160.907 18.77 161.778 19.6403C162.148 20.0102 162.376 20.4236 162.463 20.8805C162.55 21.3374 162.594 22.0662 162.594 23.0671H161.941C161.767 21.9792 161.31 21.1416 160.57 20.5541C159.83 19.9449 158.819 19.6403 157.535 19.6403C156.512 19.6403 155.707 19.8579 155.12 20.293C154.554 20.7064 154.271 21.2503 154.271 21.9248C154.271 23.0562 155.142 23.9809 156.882 24.6988L158.84 25.5147C160.32 26.1239 161.397 26.7766 162.071 27.4729C162.746 28.1473 163.083 29.0176 163.083 30.0837C163.083 31.4109 162.55 32.4552 161.484 33.2167C160.418 33.9565 159.047 34.3264 157.372 34.3264ZM165.813 16.3768C165.813 15.2671 165.66 14.4513 165.356 13.9291C165.051 13.3852 164.442 13.1132 163.528 13.1132H162.876V12.4605H171.361C173.732 12.4605 175.788 12.8521 177.529 13.6354C179.291 14.4186 180.172 15.9307 180.172 18.1717C180.172 19.1943 179.824 20.119 179.128 20.9457C178.432 21.7725 177.366 22.4252 175.93 22.9039C177.931 23.2302 179.324 23.8286 180.107 24.6988C180.912 25.5474 181.315 26.6896 181.315 28.1256C181.315 30.3231 180.444 31.8569 178.704 32.7272C176.985 33.5757 174.864 34 172.34 34H165.813V16.3768ZM171.85 22.4143C172.742 22.4143 173.58 22.2512 174.363 21.9248C175.168 21.5767 175.821 21.0763 176.321 20.4236C176.822 19.7491 177.072 18.9441 177.072 18.0085C177.072 17.0295 176.778 16.2136 176.191 15.5609C175.603 14.8864 174.853 14.3969 173.939 14.0923C173.047 13.7659 172.133 13.6027 171.198 13.6027C170.436 13.6027 169.62 13.7115 168.75 13.9291V22.4143H171.85ZM171.85 32.8578C173.83 32.8578 175.353 32.4661 176.419 31.6829C177.507 30.8996 178.051 29.7682 178.051 28.2888C178.051 26.8093 177.518 25.6779 176.452 24.8947C175.408 24.1114 173.874 23.7198 171.85 23.7198H168.75V32.4009C169.794 32.7055 170.828 32.8578 171.85 32.8578ZM183.504 16.3768C183.504 15.2671 183.351 14.4513 183.047 13.9291C182.742 13.3852 182.133 13.1132 181.219 13.1132H180.566V12.4605H183.504C184.309 12.4605 184.907 12.5693 185.299 12.7868C185.712 12.9826 186.006 13.3525 186.18 13.8964C186.354 14.4404 186.441 15.2671 186.441 16.3768V34H183.504V16.3768ZM191.375 16.7031C190.874 16.7031 190.439 16.4964 190.069 16.083C189.721 15.6696 189.547 15.1801 189.547 14.6144C189.547 14.1575 189.678 13.7985 189.939 13.5375C190.222 13.2764 190.592 13.1458 191.049 13.1458C191.549 13.1458 191.973 13.3525 192.321 13.7659C192.691 14.1793 192.876 14.6688 192.876 15.2345C192.876 15.6914 192.735 16.0504 192.452 16.3115C192.191 16.5726 191.832 16.7031 191.375 16.7031ZM190.135 22.5775C190.135 21.4679 189.982 20.652 189.678 20.1299C189.373 19.5859 188.764 19.314 187.85 19.314H187.198V18.6612H190.135C190.94 18.6612 191.538 18.77 191.93 18.9876C192.343 19.1834 192.637 19.5533 192.811 20.0972C192.985 20.6411 193.072 21.4679 193.072 22.5775V34H190.135V22.5775ZM201.169 34.3264C198.667 34.3264 196.98 33.8912 196.11 33.0209C195.74 32.6511 195.512 32.2377 195.425 31.7808C195.338 31.3021 195.294 30.5733 195.294 29.5942H195.947C196.143 30.682 196.611 31.5306 197.35 32.1398C198.112 32.7272 199.167 33.0209 200.516 33.0209C201.713 33.0209 202.605 32.8142 203.192 32.4009C203.801 31.9875 204.106 31.4327 204.106 30.7364C204.106 30.1055 203.867 29.5616 203.388 29.1047C202.931 28.6478 202.191 28.2126 201.169 27.7992L199.211 26.9833C197.905 26.4612 196.926 25.852 196.273 25.1557C195.621 24.4595 195.294 23.6001 195.294 22.5775C195.294 21.2503 195.795 20.2169 196.795 19.4771C197.796 18.7156 199.091 18.3349 200.679 18.3349C203.072 18.3349 204.704 18.77 205.574 19.6403C205.944 20.0102 206.173 20.4236 206.26 20.8805C206.347 21.3374 206.39 22.0662 206.39 23.0671H205.738C205.564 21.9792 205.107 21.1416 204.367 20.5541C203.627 19.9449 202.615 19.6403 201.332 19.6403C200.309 19.6403 199.504 19.8579 198.917 20.293C198.351 20.7064 198.068 21.2503 198.068 21.9248C198.068 23.0562 198.939 23.9809 200.679 24.6988L202.637 25.5147C204.117 26.1239 205.194 26.7766 205.868 27.4729C206.543 28.1473 206.88 29.0176 206.88 30.0837C206.88 31.4109 206.347 32.4552 205.281 33.2167C204.215 33.9565 202.844 34.3264 201.169 34.3264ZM214.102 34.3264C211.6 34.3264 209.914 33.8912 209.043 33.0209C208.673 32.6511 208.445 32.2377 208.358 31.7808C208.271 31.3021 208.227 30.5733 208.227 29.5942H208.88C209.076 30.682 209.544 31.5306 210.283 32.1398C211.045 32.7272 212.1 33.0209 213.449 33.0209C214.646 33.0209 215.538 32.8142 216.125 32.4009C216.734 31.9875 217.039 31.4327 217.039 30.7364C217.039 30.1055 216.8 29.5616 216.321 29.1047C215.864 28.6478 215.124 28.2126 214.102 27.7992L212.144 26.9833C210.838 26.4612 209.859 25.852 209.206 25.1557C208.554 24.4595 208.227 23.6001 208.227 22.5775C208.227 21.2503 208.728 20.2169 209.729 19.4771C210.729 18.7156 212.024 18.3349 213.612 18.3349C216.006 18.3349 217.637 18.77 218.508 19.6403C218.877 20.0102 219.106 20.4236 219.193 20.8805C219.28 21.3374 219.323 22.0662 219.323 23.0671H218.671C218.497 21.9792 218.04 21.1416 217.3 20.5541C216.56 19.9449 215.549 19.6403 214.265 19.6403C213.242 19.6403 212.437 19.8579 211.85 20.293C211.284 20.7064 211.001 21.2503 211.001 21.9248C211.001 23.0562 211.872 23.9809 213.612 24.6988L215.57 25.5147C217.05 26.1239 218.127 26.7766 218.801 27.4729C219.476 28.1473 219.813 29.0176 219.813 30.0837C219.813 31.4109 219.28 32.4552 218.214 33.2167C217.148 33.9565 215.777 34.3264 214.102 34.3264Z" fill="#1E1B1B"></path><defs><linearGradient id="paint0_linear_18910_1682" x1="37.1125" y1="45" x2="-3.37802" y2="38.3623" gradientUnits="userSpaceOnUse"><stop stop-color="#D35355"></stop><stop offset="1" stop-color="#D96B2F"></stop></linearGradient><linearGradient id="paint1_linear_18910_1682" x1="37.1125" y1="45" x2="-3.37802" y2="38.3623" gradientUnits="userSpaceOnUse"><stop stop-color="#D35355"></stop><stop offset="1" stop-color="#D96B2F"></stop></linearGradient></defs></svg>