<?xml version="1.0" encoding="UTF-8"?>
<svg xmlns="http://www.w3.org/2000/svg" width="62" height="62" viewBox="0 0 62 62" fill="none">
  <path d="M52.548 36.3687C15.2647 26.8293 30.803 6.31812 30.803 6.31812C30.803 6.31812 36.5716 12.2831 30.9304 24.5881" stroke="white" stroke-width="1.19211" stroke-miterlimit="10" stroke-linecap="round" stroke-linejoin="round"></path>
  <path d="M28.773 28.241C25.2134 32.9578 18.6821 35.7394 9.36914 36.3532" stroke="white" stroke-width="1.19211" stroke-miterlimit="10" stroke-linecap="round" stroke-linejoin="round"></path>
  <path d="M9.36914 27.1265C46.6524 36.6659 31.1141 57.1775 31.1141 57.1775C31.1141 57.1775 25.3455 51.2125 30.9867 38.9075" stroke="white" stroke-width="1.19211" stroke-miterlimit="10" stroke-linecap="round" stroke-linejoin="round"></path>
  <path d="M33.4531 34.8585C37.0754 30.3817 43.4984 27.738 52.5476 27.1421" stroke="white" stroke-width="1.19211" stroke-miterlimit="10" stroke-linecap="round" stroke-linejoin="round"></path>
  <path d="M4.82838 45.6753C2.3904 41.3369 1 36.331 1 31.0001C1 26.2862 2.08694 21.8263 4.0242 17.8574" stroke="white" stroke-width="1.19211" stroke-miterlimit="10" stroke-linecap="round" stroke-linejoin="round"></path>
  <path d="M57.9756 17.8572C59.9129 21.8261 61.0002 26.2864 61.0002 31.0002C61.0002 36.3308 59.6099 41.3371 57.1719 45.6755" stroke="white" stroke-width="1.19211" stroke-miterlimit="10" stroke-linecap="round" stroke-linejoin="round"></path>
  <path d="M16.7656 4.82838C21.104 2.39041 26.1099 1 31.4409 1C36.1547 1 40.6146 2.08735 44.5835 4.02419" stroke="white" stroke-width="1.19211" stroke-miterlimit="10" stroke-linecap="round" stroke-linejoin="round"></path>
  <path d="M44.5839 57.9752C40.615 59.9124 36.1547 60.9998 31.4409 60.9998C26.1103 60.9998 21.104 59.6094 16.7656 57.1714" stroke="white" stroke-width="1.19211" stroke-miterlimit="10" stroke-linecap="round" stroke-linejoin="round"></path>
</svg>
