<svg xmlns="http://www.w3.org/2000/svg" width="76" height="76" viewBox="0 0 76 76" fill="none"><path d="M75.5 37.6445L65.097 27.2415C64.0619 26.2063 62.8957 25.3818 61.6529 24.7606C62.5929 22.9136 63.0844 20.8745 63.0844 18.7575V12.5601H56.8871C54.77 12.5601 52.731 13.0516 50.884 13.9917C50.2627 12.7489 49.4382 11.5827 48.4031 10.5475L38 0.144531L27.5969 10.5475C26.5617 11.5828 25.7371 12.7492 25.1158 13.9921C23.2685 13.0518 21.2292 12.5601 19.1118 12.5601H12.9145V18.7575C12.9145 20.8747 13.4061 22.9139 14.3463 24.761C13.1038 25.3822 11.9379 26.2066 10.903 27.2415L0.5 37.6445L10.903 48.0476C11.9379 49.0825 13.1038 49.9069 14.3463 50.5281C13.4061 52.3752 12.9145 54.4144 12.9145 56.5316V62.7289H19.1118C21.2292 62.7289 23.2685 62.2373 25.1158 61.297C25.7371 62.5399 26.5617 63.7063 27.5969 64.7415L38 75.1445L48.4031 64.7415C49.4382 63.7064 50.2627 62.5402 50.884 61.2974C52.731 62.2374 54.77 62.7289 56.8871 62.7289H63.0844V56.5316C63.0844 54.4145 62.5929 52.3755 61.6529 50.5285C62.8956 49.9073 64.0619 49.0827 65.097 48.0476L75.5 37.6445ZM56.8871 15.5112H60.1333V18.7575C60.1333 20.5231 59.6941 22.2185 58.8566 23.7344C56.4854 23.1594 53.9867 23.2473 51.6533 23.9912C52.3972 21.6579 52.4851 19.1591 51.9101 16.7879C53.426 15.9504 55.1214 15.5112 56.8871 15.5112ZM38 46.793C32.9555 46.793 28.8516 42.689 28.8516 37.6445C28.8516 32.6001 32.9555 28.4961 38 28.4961C43.0445 28.4961 47.1484 32.6001 47.1484 37.6445C47.1484 42.689 43.0445 46.793 38 46.793ZM29.6837 12.6343L38 4.31801L46.3163 12.6343C50.3435 16.6615 50.3435 23.2143 46.3163 27.2415L45.4425 28.1152C43.3881 26.5072 40.8051 25.545 38 25.545C35.1949 25.545 32.6119 26.5072 30.5575 28.1152L29.6837 27.2415C25.6565 23.2143 25.6565 16.6615 29.6837 12.6343ZM15.8656 18.7575V15.5112H19.1118C20.8778 15.5112 22.5736 15.9506 24.0897 16.7885C23.5149 19.1595 23.6028 21.6581 24.3467 23.9912C22.013 23.2472 19.5139 23.1594 17.1424 23.7346C16.3049 22.2187 15.8656 20.5232 15.8656 18.7575ZM4.67348 37.6445L12.9898 29.3283C17.0169 25.301 23.5698 25.301 27.5969 29.3283L28.4707 30.202C26.8626 32.2564 25.9005 34.8394 25.9005 37.6445C25.9005 40.4496 26.8626 43.0327 28.4707 45.087L27.5969 45.9608C23.5698 49.988 17.0169 49.988 12.9898 45.9608L4.67348 37.6445ZM19.1118 59.7778H15.8656V56.5316C15.8656 54.7658 16.3049 53.0704 17.1425 51.5544C18.1765 51.8052 19.2349 51.9309 20.2934 51.9309C21.6624 51.9309 23.0306 51.7174 24.3467 51.2978C23.6028 53.631 23.5149 56.1296 24.0897 58.5006C22.5736 59.3384 20.8778 59.7778 19.1118 59.7778ZM46.3163 62.6547L38 70.971L29.6837 62.6547C25.6565 58.6276 25.6565 52.0748 29.6837 48.0476L30.5575 47.1738C32.6119 48.7819 35.1949 49.7441 38 49.7441C40.8051 49.7441 43.3881 48.7819 45.4425 47.1738L46.3163 48.0476C50.3435 52.0748 50.3435 58.6276 46.3163 62.6547ZM60.1333 56.5316V59.7778H56.8871C55.1214 59.7778 53.426 59.3386 51.9101 58.5011C52.4851 56.13 52.3972 53.6312 51.6533 51.2978C52.9694 51.7174 54.3376 51.9309 55.7066 51.9309C56.7648 51.9309 57.8229 51.8053 58.8566 51.5547C59.6941 53.0705 60.1333 54.7659 60.1333 56.5316ZM48.4031 45.9608L47.5293 45.087C49.1374 43.0327 50.0995 40.4496 50.0995 37.6445C50.0995 34.8394 49.1374 32.2564 47.5293 30.202L48.4031 29.3283C52.4302 25.301 58.9831 25.301 63.0102 29.3283L71.3265 37.6445L63.0102 45.9608C58.9831 49.988 52.4302 49.988 48.4031 45.9608Z" fill="url(#paint0_linear_18636_538)"></path><path d="M38 31.4472C34.5828 31.4472 31.8027 34.2273 31.8027 37.6445C31.8027 41.0617 34.5828 43.8419 38 43.8419C41.4172 43.8419 44.1973 41.0617 44.1973 37.6445C44.1973 34.2273 41.4172 31.4472 38 31.4472ZM38 40.8907C36.21 40.8907 34.7538 39.4345 34.7538 37.6445C34.7538 35.8546 36.21 34.3983 38 34.3983C39.79 34.3983 41.2462 35.8546 41.2462 37.6445C41.2462 39.4345 39.79 40.8907 38 40.8907Z" fill="url(#paint1_linear_18636_538)"></path><defs><linearGradient id="paint0_linear_18636_538" x1="62.3542" y1="75.1445" x2="-5.13004" y2="64.0817" gradientUnits="userSpaceOnUse"><stop stop-color="#D35355"></stop><stop offset="1" stop-color="#D96B2F"></stop></linearGradient><linearGradient id="paint1_linear_18636_538" x1="62.3542" y1="75.1445" x2="-5.13004" y2="64.0817" gradientUnits="userSpaceOnUse"><stop stop-color="#D35355"></stop><stop offset="1" stop-color="#D96B2F"></stop></linearGradient></defs></svg>